<!-- Generated by IcoMoon.io -->
<svg version="1.1" xmlns="http://www.w3.org/2000/svg" width="32" height="32" viewBox="0 0 32 32">
<title>account-meter</title>
<path d="M28.875 31.938h-25.813c-1.688 0-3.063-1.375-3.063-3.063v-25.813c0-1.688 1.375-3.063 3.063-3.063h25.813c1.688 0 3.063 1.375 3.063 3.063v25.813c0 1.688-1.375 3.063-3.063 3.063zM3.063 2.563c-0.25 0-0.5 0.25-0.5 0.5v25.813c0 0.313 0.25 0.5 0.5 0.5h25.813c0.313 0 0.5-0.188 0.5-0.5v-25.813c0-0.25-0.188-0.5-0.5-0.5zM14.438 26.938l-0.813-2.813c0-0.063 0.188-0.25 0.5-0.25 0.188 0 0.375 0.125 0.438 0.438l0.375 1.938 0.5-1.688c0.063-0.188 0.25-0.313 0.438-0.313 0.25 0 0.438 0.125 0.438 0.313l0.5 1.688 0.438-1.938c0.063-0.313 0.25-0.438 0.438-0.438 0.25 0 0.438 0.188 0.438 0.25l-0.75 2.813c-0.063 0.25-0.25 0.313-0.5 0.313s-0.375-0.063-0.438-0.313l-0.563-1.813-0.5 1.813c-0.063 0.25-0.25 0.313-0.5 0.313s-0.375-0.063-0.438-0.313zM11.063 26.875v-3.125c0-0.063 0.125-0.125 0.313-0.125s0.438 0.125 0.438 0.625v1.563l0.688-0.875c0.125-0.188 0.313-0.25 0.438-0.25 0.188 0 0.375 0.188 0.375 0.25l-0.813 0.938 0.875 1.125c0.063 0-0.125 0.25-0.375 0.25-0.125 0-0.25-0.063-0.438-0.25l-0.75-0.938v0.813c0 0.25-0.125 0.375-0.313 0.375h-0.063c-0.188 0-0.375-0.125-0.375-0.375zM19.25 25.125c0.188-0.25 0.438-0.5 0.813-0.5 0.625 0 0.938 0.5 0.938 1.063v1.188c0 0.25-0.125 0.375-0.313 0.375h-0.125c-0.188 0-0.313-0.125-0.313-0.375v-1.063c0-0.375-0.188-0.563-0.438-0.563-0.375 0-0.563 0.25-0.563 0.563v1.063c0 0.25-0.125 0.375-0.313 0.375h-0.063c-0.188 0-0.313-0.125-0.313-0.375v-3.125c0-0.063 0.125-0.125 0.25-0.125 0.188 0 0.438 0.125 0.438 0.625zM24.625 21.125h-17.438c-1.375 0-2.5-1.125-2.5-2.5v-10.875c0-1.375 1.125-2.5 2.5-2.5h17.438c1.375 0 2.5 1.125 2.5 2.5v10.875c0 1.375-1.125 2.5-2.5 2.5zM7.188 6.938c-0.438 0-0.75 0.375-0.75 0.813v10.875c0 0.438 0.313 0.75 0.75 0.75h17.438c0.438 0 0.75-0.313 0.75-0.75v-10.875c0-0.438-0.313-0.813-0.75-0.813zM12.438 14.563h-1.375l-0.125 0.313c-0.125 0.438-0.375 0.625-0.688 0.625s-0.688-0.313-0.625-0.375l1.313-3.5c0.063-0.188 0.25-0.375 0.813-0.375 0.625 0 0.75 0.188 0.813 0.375l1.375 3.438c0.063 0.125-0.313 0.438-0.688 0.438-0.25 0-0.563-0.125-0.688-0.625zM21.688 14.938v-0.063c0-0.375 0.188-0.5 0.5-0.5h0.188c0.313 0 0.5 0.125 0.5 0.5v0.063c0 0.375-0.188 0.563-0.5 0.563h-0.188c-0.313 0-0.5-0.188-0.5-0.563zM18.125 11.875v-0.063c0-0.313 0.188-0.5 0.563-0.5h2.625c0.438 0 0.625 0.188 0.625 0.5v0.063c0 0.313-0.188 0.563-0.625 0.563h-0.625v2.438c0 0.375-0.25 0.563-0.625 0.563h-0.125c-0.375 0-0.563-0.188-0.563-0.563v-2.438h-0.688c-0.375 0-0.563-0.25-0.563-0.563zM14.063 13.375c0-1.25 0.875-2.188 2.188-2.188 1.125 0 1.625 0.625 1.625 1.063 0 0.5-0.75 0.625-0.75 0.625-0.188-0.313-0.438-0.5-0.813-0.5-0.563 0-0.938 0.375-0.938 1 0 0.563 0.375 1 0.938 1 0.375 0 0.688-0.188 0.813-0.5 0-0.063 0.75 0.063 0.75 0.625 0 0.375-0.438 1-1.625 1-1.313 0-2.188-0.875-2.188-2.125zM11.313 13.688h0.875l-0.438-1.25z"></path>
</svg>
