<!-- Generated by IcoMoon.io -->
<svg version="1.1" xmlns="http://www.w3.org/2000/svg" width="32" height="32" viewBox="0 0 32 32">
<title>arrow-up-circle</title>
<path d="M16 32c-8.75 0-16-7.25-16-16s7.25-16 16-16c8.75 0 16 7.25 16 16s-7.25 16-16 16zM16 2.563c-7.438 0-13.438 6-13.438 13.438s6 13.438 13.438 13.438c7.438 0 13.438-6 13.438-13.438s-6-13.438-13.438-13.438zM14.75 20.25l0.188-5.75-2.125 2.75c-0.625 0.688-1.5 1.125-2.125 1.125-1.063 0-1.938-1.125-1.75-2.188l6.625-6.563c0.438-0.438 0.875-0.438 1.313 0l6.563 6.375c0.25 1.063-0.625 2.125-1.688 2.125-0.625 0-1.25-0.438-1.688-1.063l-2.375-2.563 0.25 5.75v2.125c0 0.25-0.25 0.438-0.438 0.438h-2.375c-0.188 0-0.375-0.188-0.375-0.438z"></path>
</svg>
