<!-- Generated by IcoMoon.io -->
<svg version="1.1" xmlns="http://www.w3.org/2000/svg" width="32" height="32" viewBox="0 0 32 32">
<title>arrow-left-circle</title>
<path d="M32 16c0 8.75-7.25 16-16 16s-16-7.25-16-16c0-8.75 7.25-16 16-16s16 7.25 16 16zM2.563 16c0 7.438 6 13.438 13.438 13.438s13.438-6 13.438-13.438c0-7.438-6-13.438-13.438-13.438s-13.438 6-13.438 13.438zM20.25 17.25h-5.75l2.75 2.188c0.688 0.375 1.125 1.25 1.125 1.875 0 1.063-1.125 1.938-2.188 1.75l-6.375-6.625c-0.438-0.438-0.438-0.875 0-1.313l6.375-6.563c1.063-0.25 2.188 0.625 2.188 1.688 0 0.625-0.438 1.25-1.125 1.688l-2.75 2.375 5.75-0.25h2.125c0.25 0 0.438 0.25 0.438 0.438v2.375c0 0.188-0.188 0.375-0.438 0.375z"></path>
</svg>
