<!-- Generated by IcoMoon.io -->
<svg version="1.1" xmlns="http://www.w3.org/2000/svg" width="32" height="32" viewBox="0 0 32 32">
<title>arrow-right-circle</title>
<path d="M0 16c0-8.75 7.25-16 16-16s16 7.25 16 16c0 8.75-7.25 16-16 16s-16-7.25-16-16zM29.438 16c0-7.438-6-13.438-13.438-13.438s-13.438 6-13.438 13.438c0 7.438 6 13.438 13.438 13.438s13.438-6 13.438-13.438zM11.75 14.75l5.75 0.188-2.75-2.125c-0.688-0.625-1.125-1.5-1.125-2.125 0-1.063 1.125-1.938 2.188-1.75l6.563 6.625c0.438 0.438 0.438 0.875 0 1.313l-6.375 6.563c-1.063 0.25-2.125-0.625-2.125-1.688 0-0.625 0.438-1.25 1.063-1.688l2.75-2.375h-8.063c-0.25 0-0.438-0.188-0.438-0.438v-2.125c0-0.188 0.188-0.375 0.438-0.375z"></path>
</svg>
