<!-- Generated by IcoMoon.io -->
<svg version="1.1" xmlns="http://www.w3.org/2000/svg" width="32" height="32" viewBox="0 0 32 32">
<title>arrow-down-circle</title>
<path d="M16 0c8.813 0 16 7.188 16 16s-7.188 16-16 16c-8.813 0-16-7.188-16-16s7.188-16 16-16zM16 29.375c7.438 0 13.438-6 13.438-13.438s-6-13.438-13.438-13.438c-7.438 0-13.438 6-13.438 13.438s6 13.438 13.438 13.438zM17.375 11.625l-0.188 5.813 2.25-2.875c0.438-0.563 1.125-0.938 1.813-0.938 1.063 0 1.875 1.125 1.688 2.125l-6.563 6.438c-0.375 0.375-0.875 0.375-1.188 0l-6.625-6.438c-0.125-1 0.688-2.125 1.813-2.125 0.688 0 1.25 0.375 1.688 0.938l2.25 2.875-0.125-5.813v-2.125c0-0.313 0.125-0.438 0.375-0.438h2.375c0.25 0 0.5 0.125 0.438 0.438 0 0 0 2.125 0 2.125z"></path>
</svg>
