<!-- Generated by IcoMoon.io -->
<svg version="1.1" xmlns="http://www.w3.org/2000/svg" width="32" height="32" viewBox="0 0 32 32">
<title>bill</title>
<path d="M27.688 31.938h-23.438v-31.938h12.25l11.188 11.313zM10.438 21.75v-0.25c0-0.563 0.375-0.938 1-0.938h1.188l0.375-2.125c0.5-2.625 1.938-3.938 4.375-3.938 2.375 0 3.75 1.25 3.75 2.688s-1.625 1.375-1.625 1.313c-0.25-1.063-0.875-1.75-2-1.75-1.188 0-1.75 0.625-2 2l-0.375 1.813h2.625c0.625 0 1 0.375 1 0.938v0.25c0 0.563-0.375 0.938-1 0.938h-3l-0.438 2.625h5.375c0.875 0 1.313 0.313 1.313 1.063v0.125c0 0.813-0.438 1.125-1.313 1.125h-8.438c-0.875 0-1.25-0.313-1.25-1.125v-0.125c0-0.75 0.375-1.063 1.25-1.063h0.5l0.5-2.625h-0.813c-0.625 0-1-0.375-1-0.938zM14.688 2.563h-7.875v26.813h18.313v-16.25h-10.438zM17.25 10.563h6.125l-6.125-6.188z"></path>
</svg>
