<!-- Generated by IcoMoon.io -->
<svg version="1.1" xmlns="http://www.w3.org/2000/svg" width="27" height="32" viewBox="0 0 27 32">
<title>calc</title>
<path d="M22.98 2.577c0.644 0 1.074 0.43 1.074 1.074v24.698c0 0.644-0.43 1.074-1.074 1.074h-19.329c-0.644 0-1.074-0.43-1.074-1.074v-24.698c0-0.644 0.43-1.074 1.074-1.074h19.329zM22.98 0h-19.329c-1.933 0-3.651 1.718-3.651 3.651v24.698c0 1.933 1.718 3.651 3.651 3.651h19.329c1.933 0 3.651-1.718 3.651-3.651v-24.698c0-1.933-1.718-3.651-3.651-3.651v0zM10.738 21.906c-0.43-0.43-1.074-0.43-1.289 0l-0.859 0.859-0.859-0.859c-0.644-0.43-1.289-0.43-1.718 0s-0.43 1.074 0 1.289l0.859 0.859-0.859 0.859c-0.43 0.43-0.43 1.074 0 1.289 0.215 0.215 0.43 0.215 0.644 0.215s0.43 0 0.644-0.215l0.859-0.859 0.859 0.859c0.215 0.215 0.43 0.215 0.644 0.215s0.43 0 0.644-0.215c0.43-0.43 0.43-1.074 0-1.289l-0.859-0.859 1.289-0.859c0.43-0.215 0.43-0.859 0-1.289zM10.738 15.893h-1.289v-1.289c0-0.644-0.43-1.074-1.074-1.074s-1.074 0.43-1.074 1.074v1.289h-1.289c-0.644 0-1.074 0.43-1.074 1.074s0.43 1.074 1.074 1.074h1.289v1.289c0 0.644 0.43 1.074 1.074 1.074s1.074-0.43 1.074-1.074v-1.503h1.289c0.644 0 1.074-0.43 1.074-1.074s-0.644-0.859-1.074-0.859zM20.188 15.893h-3.866c-0.644 0-1.074 0.43-1.074 1.074s0.43 1.074 1.074 1.074h3.651c0.644 0 1.074-0.43 1.074-1.074s-0.43-1.074-0.859-1.074zM20.188 21.691h-3.866c-0.644 0-1.074 0.43-1.074 1.074s0.43 1.074 1.074 1.074h3.651c0.644 0 1.074-0.43 1.074-1.074s-0.43-1.074-0.859-1.074zM20.188 24.913h-3.866c-0.644 0-1.074 0.43-1.074 1.074s0.43 1.074 1.074 1.074h3.651c0.644 0 1.074-0.43 1.074-1.074s-0.43-1.074-0.859-1.074zM4.295 4.51h18.040v5.799h-18.040v-5.799z"></path>
</svg>
