<svg xmlns="http://www.w3.org/2000/svg" width="45" height="45" viewBox="0 0 45 45"><defs><style>.cls-1{fill:#fff;}</style></defs><title>reminder</title><g id="Layer_2" data-name="Layer 2"><g id="Content_-_MYACCOUNT-Account-Details-Landing_v4" data-name="Content - MYACCOUNT-Account-Details-Landing_v4"><circle class="cls-1" cx="16.9" cy="28.1" r="0.93"/><circle class="cls-1" cx="20.63" cy="28.1" r="0.93"/><circle class="cls-1" cx="24.37" cy="28.1" r="0.93"/><circle class="cls-1" cx="16.9" cy="24.37" r="0.93"/><circle class="cls-1" cx="20.63" cy="24.37" r="0.93"/><circle class="cls-1" cx="24.37" cy="24.37" r="0.93"/><circle class="cls-1" cx="28.1" cy="24.37" r="0.93"/><circle class="cls-1" cx="16.9" cy="20.63" r="0.93"/><circle class="cls-1" cx="20.63" cy="20.63" r="0.93"/><circle class="cls-1" cx="24.37" cy="20.63" r="0.93"/><circle class="cls-1" cx="28.1" cy="20.63" r="0.93"/><path class="cls-1" d="M18.3,16.41a.93.93,0,0,1-.93-.94v-3.7a.93.93,0,1,1,1.86,0v3.7A.93.93,0,0,1,18.3,16.41Z"/><path class="cls-1" d="M26.7,16.41a.93.93,0,0,1-.93-.94v-3.7a.93.93,0,1,1,1.86,0v3.7A.93.93,0,0,1,26.7,16.41Z"/><rect class="cls-1" x="21.1" y="12.7" width="2.8" height="1.87"/><path class="cls-1" d="M29.5,12.7h0v1.87h0a2.8,2.8,0,0,1,2.8,2.8V29.5a2.81,2.81,0,0,1-2.8,2.8h-14a2.81,2.81,0,0,1-2.8-2.8V17.37a2.8,2.8,0,0,1,2.8-2.8h0V12.7h0a4.68,4.68,0,0,0-4.67,4.67V29.5a4.68,4.68,0,0,0,4.67,4.67h14a4.68,4.68,0,0,0,4.67-4.67V17.37A4.68,4.68,0,0,0,29.5,12.7Z"/><path class="cls-1" d="M45,22.5A22.5,22.5,0,1,1,22.5,0,22.52,22.52,0,0,1,45,22.5Zm-41.4,0A18.9,18.9,0,1,0,22.5,3.6,18.92,18.92,0,0,0,3.6,22.5Z"/></g></g></svg>