<!-- Generated by IcoMoon.io -->
<svg version="1.1" xmlns="http://www.w3.org/2000/svg" width="32" height="32" viewBox="0 0 32 32">
<title>calendar</title>
<path d="M9.6 23.68c0 0.707-0.573 1.28-1.28 1.28s-1.28-0.573-1.28-1.28c0-0.707 0.573-1.28 1.28-1.28s1.28 0.573 1.28 1.28zM14.72 23.68c0 0.707-0.573 1.28-1.28 1.28s-1.28-0.573-1.28-1.28c0-0.707 0.573-1.28 1.28-1.28s1.28 0.573 1.28 1.28zM19.84 23.68c0 0.707-0.573 1.28-1.28 1.28s-1.28-0.573-1.28-1.28c0-0.707 0.573-1.28 1.28-1.28s1.28 0.573 1.28 1.28zM9.6 18.56c0 0.707-0.573 1.28-1.28 1.28s-1.28-0.573-1.28-1.28c0-0.707 0.573-1.28 1.28-1.28s1.28 0.573 1.28 1.28zM14.72 18.56c0 0.707-0.573 1.28-1.28 1.28s-1.28-0.573-1.28-1.28c0-0.707 0.573-1.28 1.28-1.28s1.28 0.573 1.28 1.28zM19.84 18.56c0 0.707-0.573 1.28-1.28 1.28s-1.28-0.573-1.28-1.28c0-0.707 0.573-1.28 1.28-1.28s1.28 0.573 1.28 1.28zM24.96 18.56c0 0.707-0.573 1.28-1.28 1.28s-1.28-0.573-1.28-1.28c0-0.707 0.573-1.28 1.28-1.28s1.28 0.573 1.28 1.28zM9.6 13.44c0 0.707-0.573 1.28-1.28 1.28s-1.28-0.573-1.28-1.28c0-0.707 0.573-1.28 1.28-1.28s1.28 0.573 1.28 1.28zM14.72 13.44c0 0.707-0.573 1.28-1.28 1.28s-1.28-0.573-1.28-1.28c0-0.707 0.573-1.28 1.28-1.28s1.28 0.573 1.28 1.28zM19.84 13.44c0 0.707-0.573 1.28-1.28 1.28s-1.28-0.573-1.28-1.28c0-0.707 0.573-1.28 1.28-1.28s1.28 0.573 1.28 1.28zM24.96 13.44c0 0.707-0.573 1.28-1.28 1.28s-1.28-0.573-1.28-1.28c0-0.707 0.573-1.28 1.28-1.28s1.28 0.573 1.28 1.28zM10.24 7.68c-0.64 0-1.28-0.64-1.28-1.28v-5.12c0-0.64 0.64-1.28 1.28-1.28s1.28 0.64 1.28 1.28v5.12c0 0.64-0.64 1.28-1.28 1.28zM21.76 7.68c-0.64 0-1.28-0.64-1.28-1.28v-5.12c0-0.64 0.64-1.28 1.28-1.28s1.28 0.64 1.28 1.28v5.12c0 0.64-0.64 1.28-1.28 1.28zM14.080 2.56h3.84v2.56h-3.84v-2.56zM25.6 2.56v0 2.56c2.133 0 3.84 1.707 3.84 3.84v16.64c0 2.133-1.707 3.84-3.84 3.84h-19.2c-2.133 0-3.84-1.707-3.84-3.84v-16.64c0-2.133 1.707-3.84 3.84-3.84v0-2.56c-3.413 0-6.4 2.773-6.4 6.4v16.64c0 3.627 2.987 6.4 6.4 6.4h19.2c3.413 0 6.4-2.773 6.4-6.4v-16.64c0-3.627-2.987-6.4-6.4-6.4z"></path>
</svg>
