<!-- Generated by IcoMoon.io -->
<svg version="1.1" xmlns="http://www.w3.org/2000/svg" width="32" height="32" viewBox="0 0 32 32">
<title>call-centre</title>
<path d="M16 8.813c3.625 0 6.375 3 6.375 6.375 0 3.625-3 6.438-6.375 6.438-3.625 0-6.375-3-6.375-6.438-0.25-3.375 2.75-6.375 6.375-6.375M16 6.375c-5 0-9 4-9 9s4 8.813 8.813 8.813c4.813 0 8.813-4 8.813-8.813 0-4.75-3.813-9-8.625-9zM31 15.375c0-8.188-6.813-15-15-15s-15 6.813-15 15c0 0.625 0.625 1.25 1.188 1.25 0.625 0 1.188-0.625 1.188-1.25 0-7 5.625-12.563 12.625-12.563s12.625 5.563 12.625 12.563c0 5.813-4 10.625-9.25 12.25-0.375-0.625-1-1.25-1.563-1.25h-3.625c-1 0-1.813 0.813-1.813 1.813v1.813c0 1 0.813 1.813 1.813 1.813h3.625c1 0 1.813-0.813 1.813-1.813 6.375-1.625 11.375-7.625 11.375-14.625z"></path>
</svg>
