<!-- Generated by IcoMoon.io -->
<svg version="1.1" xmlns="http://www.w3.org/2000/svg" width="32" height="32" viewBox="0 0 32 32">
<title>cashcheque</title>
<path d="M29.188 26.813h-26.375c-1.563 0-2.813-1.313-2.813-2.813v-16c0-1.5 1.25-2.813 2.813-2.813h26.375c1.563 0 2.813 1.313 2.813 2.813v16c0 1.5-1.25 2.813-2.813 2.813zM29.688 8c0-0.25-0.188-0.5-0.5-0.5h-26.375c-0.313 0-0.5 0.25-0.5 0.5v16c0 0.25 0.188 0.5 0.5 0.5h26.375c0.313 0 0.5-0.25 0.5-0.5zM21.688 15.875c-1.25-0.75-2.125-1.75-2.688-2.75 0.625 0.313 1.313 0.563 2.063 0.813 2.688 0.875 4.938 1.188 5.188 0.688 0.125-0.5-1.813-1.688-4.563-2.5-1.188-0.438-2.25-0.688-3.188-0.875 0 0.563 0.125 1.25 0.5 1.875-1.563-0.688-2.563-1.375-2.438-1.688 0-0.125 0.063-0.125 0.125-0.188l2.75-1.625c1.25-0.875 3.563-0.5 5.75 0.813 2.563 1.625 3.875 4.188 2.938 5.625-1 1.563-3.875 1.438-6.438-0.188zM16.063 22.313h-11.75c-0.25 0-0.563-0.188-0.563-0.563 0-0.25 0.188-0.563 0.563-0.563h11.75c0.313 0 0.563 0.25 0.563 0.563-0.063 0.375-0.25 0.563-0.563 0.563zM10.563 20.313h-6.313c-0.313 0-0.563-0.188-0.563-0.563 0-0.25 0.188-0.563 0.563-0.563h6.313c0.313 0 0.563 0.25 0.563 0.563 0 0.375-0.25 0.563-0.563 0.563z"></path>
</svg>
