<!-- Generated by IcoMoon.io -->
<svg version="1.1" xmlns="http://www.w3.org/2000/svg" width="32" height="32" viewBox="0 0 32 32">
<title>clock</title>
<path d="M16 32c-8.747 0-16-7.253-16-16s7.253-16 16-16 16 7.253 16 16-7.253 16-16 16zM16 2.56c-7.467 0-13.44 5.973-13.44 13.44s5.973 13.44 13.44 13.44c7.467 0 13.44-5.973 13.44-13.44s-5.973-13.44-13.44-13.44zM21.547 24.96c-0.427 0-0.853-0.213-1.067-0.427l-5.547-5.76c-0.427-0.213-0.64-0.64-0.64-1.067v-10.88c0-0.853 0.64-1.707 1.707-1.707 0.853 0 1.707 0.64 1.707 1.707v10.24l5.12 5.12c0.64 0.64 0.64 1.707 0 2.347-0.427 0.213-0.853 0.427-1.28 0.427z"></path>
</svg>
