<!-- Generated by IcoMoon.io -->
<svg version="1.1" xmlns="http://www.w3.org/2000/svg" width="47" height="32" viewBox="0 0 47 32">
<title>credit</title>
<path d="M36.248 25.487h3.398c0.85 0 1.699-0.85 1.699-1.699v0c0-0.85-0.85-1.699-1.699-1.699h-3.398c-0.85 0-1.699 0.85-1.699 1.699v0c0 0.85 0.85 1.699 1.699 1.699zM23.788 25.487h-17.558c-0.283 0-0.85-0.283-0.85-0.85s0.283-0.85 0.85-0.85h17.558c0.566 0 0.85 0.283 0.85 0.85s-0.566 0.85-0.85 0.85zM15.575 22.372h-9.345c-0.566 0-0.85-0.283-0.85-0.85s0.283-0.85 0.85-0.85h9.345c0.566 0 0.85 0.283 0.85 0.85s-0.283 0.85-0.85 0.85zM43.044 32h-38.796c-2.265 0-4.248-1.699-4.248-3.965v-23.788c0-2.265 1.982-4.248 4.248-4.248h39.080c2.266 0 4.248 1.982 4.248 4.248v23.788c-0.283 2.265-2.266 3.965-4.531 3.965zM4.248 3.398c-0.283 0-0.85 0.283-0.85 0.85v23.788c0 0.283 0.283 0.85 0.85 0.85h39.080c0.283 0 0.85-0.283 0.85-0.85v-23.788c0-0.283-0.283-0.85-0.85-0.85h-39.080zM1.699 8.779h43.894v6.796h-43.894v-6.796z"></path>
</svg>
