<!-- Generated by IcoMoon.io -->
<svg version="1.1" xmlns="http://www.w3.org/2000/svg" width="32" height="32" viewBox="0 0 32 32">
<title>cross2</title>
<path d="M16 32c-8.747 0-16-7.253-16-16s7.253-16 16-16 16 7.253 16 16-7.253 16-16 16zM16 2.56c-7.467 0-13.44 5.973-13.44 13.44s5.973 13.44 13.44 13.44c7.467 0 13.44-5.973 13.44-13.44s-5.973-13.44-13.44-13.44zM12.16 20.48v0c-0.64-0.64-0.64-1.28 0-2.133l2.133-2.133-2.133-2.133c-0.64-0.64-0.64-1.28-0.213-1.92l0.213-0.213c0.427-0.427 1.067-0.64 1.92 0.213l2.133 2.133 2.133-2.133c0.853-0.64 1.493-0.64 1.92-0.213l0.213 0.213c0.427 0.427 0.64 1.067-0.213 1.92l-2.133 2.133 2.347 2.347c0.64 0.64 0.64 1.28 0 1.707l-0.213 0.213c-0.427 0.64-1.067 0.64-1.707 0l-2.347-2.347-2.133 2.133c-0.853 0.64-1.493 0.64-1.92 0.213z"></path>
</svg>
