<!-- Generated by IcoMoon.io -->
<svg version="1.1" xmlns="http://www.w3.org/2000/svg" width="32" height="32" viewBox="0 0 32 32">
<title>cross22</title>
<path d="M12.16 20.48v0c-0.64-0.64-0.64-1.28 0-2.133l2.133-2.133-2.133-2.133c-0.64-0.64-0.64-1.28-0.213-1.92l0.213-0.213c0.427-0.427 1.067-0.64 1.92 0.213l2.133 2.133 2.133-2.133c0.853-0.64 1.493-0.64 1.92-0.213l0.213 0.213c0.427 0.427 0.64 1.067-0.213 1.92l-2.133 2.133 2.347 2.347c0.64 0.64 0.64 1.28 0 1.707l-0.213 0.213c-0.427 0.64-1.067 0.64-1.707 0l-2.347-2.347-2.133 2.133c-0.853 0.64-1.493 0.64-1.92 0.213z"></path>
</svg>
