<!-- Generated by IcoMoon.io -->
<svg version="1.1" xmlns="http://www.w3.org/2000/svg" width="32" height="32" viewBox="0 0 32 32">
<title>cross</title>
<path d="M1.688 30.063l-0.5-0.438c-1.688-1.688-1.875-4.063 0.5-6.25l7.375-7.375-7.625-7.625c-2.375-2.375-2.125-4.563-0.5-6.438l0.75-0.75c1.625-1.688 4.063-1.875 6.188 0.5l7.625 7.625 7.438-7.375c2.375-2.438 4.5-2.188 6.188-0.5l0.5 0.5c1.688 1.625 1.875 3.813-0.5 6.438l-7.375 7.375 8.125 8.125c2.375 2.375 2.125 4.813 0.438 6.438l-0.688 0.75c-1.688 1.625-4.063 1.875-6.438-0.5l-8.125-8.125-7.438 7.438c-1.875 2.125-4.063 1.875-5.938 0.188z"></path>
</svg>
