<!-- Generated by IcoMoon.io -->
<svg version="1.1" xmlns="http://www.w3.org/2000/svg" width="32" height="32" viewBox="0 0 32 32">
<title>directdebit</title>
<path d="M30 21.125v4.25h-1.438v-4.25h-2.063v-0.813h5.5v0.813zM11.938 8.875c0 0 0.063-0.063 0.063-0.063s-0.063 0-0.063 0.063c0.063 0 0.063-0.063 0.063-0.125 0.563-0.5 1.188-0.813 1.813-1.063 0.75-0.25 1.438-0.438 2.25-0.5v9.938c-1.313-0.063-2.813-0.625-3.875-1.375-0.938-0.625-2-1.75-2-3.438 0-0.625 0.125-1.25 0.375-1.813 0-0.125 0.063-0.188 0.188-0.25 0.125-0.25 0.188-0.5 0.375-0.625 0.063-0.125 0.125-0.188 0.125-0.25 0.25-0.188 0.438-0.313 0.688-0.5zM10.625 10.5c0 0.063 0 0.063 0 0 0 0.063 0 0.063 0 0zM24.938 16.313c-2.438 1.75-5.875 2.625-9.5 2.625-1.813 0-3.625-0.188-5.25-0.688s-3.063-1.188-4.375-2c-1.188-0.875-2.188-1.938-2.875-3.063-0.688-1.188-1-2.375-1-3.688s0.313-2.625 0.938-3.813c0.625-1.125 1.625-2.188 2.813-3.063 2.563-1.75 6.125-2.688 10.5-2.688v6.875l-2.188-0.063c-2.25 0.063-4.75 0.625-6.563 1.438-2.063 0.938-3.188 2.063-3.188 3.25 0 1.438 1.188 3.063 3.188 4.313 2.188 1.375 4.938 2.063 7.688 2.063 0.625 0 1.375-0.063 1.938-0.125 0.063 0 0.063 0 0.125 0 0 0 0.063 0 0.063 0 2.125-0.5 3.875-1.688 5.063-3.438 0.063-0.063 0.063-0.188 0.188-0.25 0-0.063 0.063-0.063 0.063-0.188 0-0.063 0.063-0.063 0.063-0.125 0.125-0.063 0.125-0.188 0.188-0.25 0.625-1.188 0.938-2.625 0.938-4.25 0-6-3.938-8.125-7.188-8.875v-0.313c3.375 0.188 6.5 1.25 8.688 3.063 1.125 0.875 1.938 1.813 2.563 2.938 0.688 1.125 0.938 2.313 0.938 3.438 0 1.375-0.375 2.625-1.063 3.813-0.5 1.25-1.438 2.188-2.75 3.063zM5.188 20.938c0.625 0.5 1.063 1.125 1.063 1.875 0 0.688-0.313 1.375-1.063 1.813-0.625 0.438-1.5 0.625-2.375 0.625h-2.813v-5h2.75c0.938 0 1.813 0.313 2.438 0.688zM1.5 21.063v3.5h1c0.625 0 1.188-0.188 1.5-0.5 0.375-0.313 0.563-0.688 0.563-1.188 0-1.188-1.125-1.688-1.938-1.688zM2.75 26.625c0.938 0 1.75 0.25 2.375 0.75 0.625 0.438 1.063 1.125 1.063 1.813 0 0.75-0.375 1.375-1.063 1.875-0.625 0.375-1.5 0.625-2.375 0.625h-2.75v-5.063zM1.5 30.875h1c0.625 0 1.188-0.125 1.5-0.5 0.375-0.313 0.563-0.688 0.563-1.188 0-1.188-1.125-1.688-1.938-1.688l-1.188-0.063zM8.563 25.25h-1.5v-5h1.5zM8.625 28.313c0.5-0.375 1.188-0.563 2-0.563 0.5 0 1.438 0.063 2 0.75 0.438 0.375 0.563 0.938 0.563 1.563h-3.75c0.063 0.813 1.063 1 1.625 1 0.75 0 1.563-0.25 1.813-0.438v0.875c-0.625 0.313-1.438 0.313-2.125 0.313-0.813 0-1.5-0.125-2-0.563-0.563-0.375-0.813-0.875-0.813-1.5-0.125-0.563 0.125-1.125 0.688-1.438zM11.75 29.375c-0.063-0.563-0.5-0.875-1.125-0.875-0.438 0-1.188 0.063-1.188 0.875zM11.938 23.25h-0.563v2h-1.563v-5.063h2.75c0.563 0 2.25 0.063 2.25 1.313 0 1.125-1 1.313-1.188 1.313 0.125 0.063 0.313 0.313 0.313 0.313l1.188 2.063h-1.625l-0.75-1.5c0 0.063-0.188-0.438-0.813-0.438zM13.25 21.75c0-0.5-0.438-0.625-0.938-0.625h-1.063v1.375h1c0.25 0 0.5-0.125 0.625-0.188 0.313-0.25 0.375-0.375 0.375-0.563zM20.25 24.375v0.875h-4.063v-5.063h4.063v0.875h-2.75v1.25h2.563v0.875h-2.563v1.188zM16.875 28.5c0.063-0.125 0.063-0.125 0.188-0.188 0.375-0.313 0.938-0.5 1.563-0.5s1.188 0.188 1.625 0.5c0.375 0.313 0.625 0.875 0.625 1.438 0 0.625-0.25 1.125-0.625 1.5-0.438 0.375-1 0.563-1.625 0.563-0.688 0-1.25-0.125-1.688-0.438-0.063 0-0.063-0.125-0.125-0.125v0.5h-1.563v-5.5h1.563v2.25zM16.875 30c0.063 0.563 0.625 1.063 1.313 1.063 0.313 0 0.625-0.125 0.875-0.313 0.188-0.25 0.375-0.5 0.375-0.813 0-0.688-0.563-1.125-1.25-1.125-0.375 0-0.688 0.063-0.938 0.313-0.188 0.125-0.313 0.375-0.375 0.625zM21.25 21.188c0.688-0.625 1.813-1 3.125-1 0.75 0 1.375 0.063 1.875 0.313l-0.188 0.75c-0.125-0.063-0.813-0.188-1.5-0.188-1.063 0-2.25 0.313-2.25 1.75 0 0.375 0.188 0.813 0.438 1 0.5 0.563 1.563 0.688 2.125 0.688 0.5 0 0.938-0.125 1.188-0.188l0.125 0.813c-0.563 0.125-1.125 0.25-1.688 0.25-1 0-1.938-0.25-2.563-0.625-0.75-0.5-1.125-1.125-1.188-2-0.125-0.563 0.063-1.125 0.5-1.563zM25.063 27.188h-1.563v-0.938h1.563zM25.063 31.75h-1.563v-3.75h1.563zM28.563 27.063h1.5v0.938h1.313v0.813h-1.313v1.75c0 0.313 0.438 0.5 0.875 0.5 0.188 0 0.313 0 0.438-0.125v0.875c-0.313 0.125-0.625 0.125-1 0.125-0.313 0-0.875-0.125-1.25-0.25-0.375-0.25-0.563-0.563-0.563-0.938v-1.938h-1.188v-0.813h1.188z"></path>
</svg>
