<!-- Generated by IcoMoon.io -->
<svg version="1.1" xmlns="http://www.w3.org/2000/svg" width="35" height="32" viewBox="0 0 35 32">
<title>direct_debit</title>
<path d="M17.606 24.932c-9.703 0-17.606-5.59-17.606-12.466s7.904-12.466 17.606-12.466c9.703 0 17.606 5.59 17.606 12.466s-7.968 12.466-17.606 12.466zM17.606 2.57c-8.289 0-15.036 4.434-15.036 9.896s6.747 9.896 15.036 9.896c8.289 0 15.036-4.434 15.036-9.896-0.064-5.462-6.811-9.896-15.036-9.896zM18.827 21.205c4.755 0 8.546-3.984 8.546-8.803s-3.855-8.803-8.546-8.803v17.606zM0.771 31.165v-2.763c0-0.45 0.257-0.707 0.643-0.707h1.092c1.349 0 2.185 0.771 2.185 2.056s-0.835 2.12-2.249 2.12h-0.964c-0.386 0-0.707-0.321-0.707-0.707zM2.442 30.779c0.578 0 0.964-0.386 0.964-1.028s-0.386-0.964-0.964-0.964h-0.386v1.992h0.386zM4.948 27.759c0-0.321 0.257-0.578 0.643-0.578s0.643 0.193 0.643 0.578c0 0.386-0.257 0.578-0.643 0.578s-0.643-0.193-0.643-0.578zM5.012 31.293v-2.056c0-0.45 0.257-0.578 0.578-0.578h0.128c0.321 0 0.578 0.128 0.578 0.578v2.056c0 0.45-0.193 0.578-0.514 0.578h-0.193c-0.321 0.064-0.578-0.064-0.578-0.578zM7.839 29.237c0.128-0.386 0.386-0.578 0.771-0.578s0.643 0.257 0.643 0.643c0 0.514-0.386 0.643-0.386 0.643-0.129-0.064-0.257-0.193-0.45-0.193-0.386 0-0.514 0.257-0.514 0.771v0.771c0 0.45-0.257 0.578-0.514 0.578h-0.128c-0.321 0-0.578-0.128-0.578-0.578v-2.506c0-0.064 0.193-0.128 0.45-0.128s0.578 0.128 0.707 0.578zM9.253 30.329c0-0.964 0.707-1.671 1.671-1.671s1.671 0.643 1.671 1.606v0.064c0 0.193-0.064 0.321-0.257 0.321h-1.992c0.064 0.321 0.321 0.514 0.707 0.514s0.643-0.193 0.771-0.386c0 0 0.578 0.064 0.578 0.514s-0.514 0.771-1.414 0.771c-1.028-0.064-1.735-0.707-1.735-1.735zM10.345 30.008h1.157c0-0.321-0.193-0.514-0.578-0.514-0.321-0.064-0.578 0.193-0.578 0.514zM12.659 30.329c0-0.964 0.707-1.671 1.671-1.671 1.028 0 1.349 0.514 1.349 0.835 0 0.514-0.643 0.578-0.643 0.514-0.064-0.257-0.257-0.386-0.643-0.386s-0.643 0.321-0.643 0.707c0 0.386 0.257 0.707 0.643 0.707 0.321 0 0.514-0.193 0.643-0.45 0-0.064 0.643 0 0.643 0.514 0 0.321-0.386 0.835-1.349 0.835-0.964 0.064-1.671-0.643-1.671-1.606zM15.679 29.237v-0.064c0-0.321 0.193-0.45 0.514-0.45h0.064v-0.321c0-0.386 0.193-0.578 0.578-0.578h0.128c0.321 0 0.578 0.128 0.578 0.578v0.321h0.386c0.321 0 0.45 0.128 0.45 0.386v0.064c0 0.257-0.193 0.45-0.514 0.45h-0.386v1.092c0 0.193 0.064 0.321 0.257 0.321s0.257-0.064 0.321-0.193c0 0 0.257 0.128 0.257 0.45 0 0.386-0.386 0.707-0.964 0.707-0.771 0-1.092-0.386-1.092-1.157v-1.221h-0.064c-0.321 0-0.514-0.128-0.514-0.386zM19.47 31.165v-2.763c0-0.45 0.257-0.707 0.643-0.707h1.092c1.349 0 2.185 0.771 2.185 2.056s-0.835 2.12-2.249 2.12h-1.028c-0.321 0-0.643-0.321-0.643-0.707zM21.141 30.779c0.578 0 0.964-0.386 0.964-1.028s-0.386-0.964-0.964-0.964h-0.45v1.992h0.45zM23.518 30.329c0-0.964 0.707-1.671 1.671-1.671s1.671 0.643 1.671 1.606v0.064c0 0.193-0.064 0.321-0.257 0.321h-1.992c0.064 0.321 0.321 0.514 0.707 0.514s0.643-0.193 0.771-0.386c0 0 0.578 0.064 0.578 0.514s-0.514 0.771-1.414 0.771c-1.028-0.064-1.735-0.707-1.735-1.735zM24.61 30.008h1.157c0-0.321-0.193-0.514-0.578-0.514-0.321-0.064-0.578 0.193-0.578 0.514zM28.337 31.422c0 0.386-0.257 0.514-0.514 0.514h-0.193c-0.321 0-0.578-0.128-0.578-0.578v-3.791c0-0.064 0.193-0.128 0.45-0.128 0.321 0 0.771 0.193 0.771 0.964v0.771c0.193-0.257 0.514-0.45 0.9-0.45 0.9 0 1.478 0.643 1.478 1.671 0 0.964-0.578 1.671-1.478 1.671-0.386-0.064-0.707-0.321-0.835-0.643zM29.558 30.329c0-0.45-0.257-0.707-0.643-0.707-0.257 0-0.514 0.128-0.578 0.386v0.514c0 0.321 0.257 0.578 0.578 0.578 0.386-0.064 0.643-0.386 0.643-0.771zM30.908 27.759c0-0.321 0.257-0.578 0.643-0.578s0.643 0.193 0.643 0.578c0 0.386-0.257 0.578-0.643 0.578s-0.643-0.193-0.643-0.578zM30.972 31.293v-2.056c0-0.45 0.257-0.578 0.578-0.578h0.128c0.321 0 0.578 0.128 0.578 0.578v2.056c0 0.45-0.193 0.578-0.514 0.578h-0.128c-0.45 0.064-0.643-0.064-0.643-0.578zM32.386 29.237v-0.064c0-0.321 0.193-0.45 0.514-0.45h0.064v-0.321c0-0.386 0.193-0.578 0.578-0.578h0.129c0.321 0 0.578 0.128 0.578 0.578v0.321h0.386c0.321 0 0.45 0.128 0.45 0.386v0.064c0 0.257-0.193 0.45-0.514 0.45h-0.386v1.092c0 0.193 0.064 0.321 0.257 0.321s0.257-0.064 0.321-0.193c0 0 0.257 0.128 0.257 0.45 0 0.386-0.386 0.707-0.964 0.707-0.771 0-1.092-0.386-1.092-1.157v-1.221h-0.064c-0.386 0-0.514-0.128-0.514-0.386zM19.984 21.205c-6.811 0-12.337-2.442-12.337-5.462s5.462-5.462 12.337-5.462c-4.369 0-7.839 2.442-7.839 5.462s3.47 5.462 7.839 5.462z"></path>
</svg>
