<!-- Generated by IcoMoon.io -->
<svg version="1.1" xmlns="http://www.w3.org/2000/svg" width="32" height="32" viewBox="0 0 32 32">
<title>document</title>
<path d="M22.75 20.25h-13.5c-0.563 0-1-0.438-1-1.063 0-0.563 0.438-1.063 1-1.063h13.5c0.563 0 1 0.5 1 1.063 0 0.625-0.438 1.063-1 1.063zM22.75 24h-13.5c-0.563 0-1-0.5-1-1.063s0.438-1.063 1-1.063h13.5c0.563 0 1 0.5 1 1.063s-0.438 1.063-1 1.063zM22.75 27.75h-13.5c-0.563 0-1-0.5-1-1.063 0-0.625 0.438-1.063 1-1.063h13.5c0.563 0 1 0.438 1 1.063 0 0.563-0.438 1.063-1 1.063zM28 32h-24v-32h12.563l11.438 11.313zM6.625 29.438h18.75v-17.063l-9.938-9.813h-8.813zM26.688 13.125h-12v-11.75h2.625v9.188h9.375z"></path>
</svg>
