<!-- Generated by IcoMoon.io -->
<svg version="1.1" xmlns="http://www.w3.org/2000/svg" width="34" height="32" viewBox="0 0 34 32">
<title>download</title>
<path d="M19.663 4.627l-0.386 10.41 3.855-5.012c0.771-1.157 1.928-1.928 3.47-1.928 1.928 0 3.47 1.928 3.084 3.855l-11.952 11.952c-0.771 0.771-1.542 0.771-2.313 0l-11.566-11.952c-0.386-1.928 1.157-3.855 3.084-3.855 1.157 0 2.313 0.771 3.084 1.928l4.241 5.012-0.386-10.41v-3.855c0-0.386 0.386-0.771 0.771-0.771h4.241c0.386 0 0.771 0.386 0.771 0.771v3.855zM31.229 32h-28.916c-1.157 0-2.313-1.157-2.313-2.313s1.157-2.313 2.313-2.313h28.916c1.157 0 2.313 1.157 2.313 2.313s-1.157 2.313-2.313 2.313z"></path>
</svg>
