<!-- Generated by IcoMoon.io -->
<svg version="1.1" xmlns="http://www.w3.org/2000/svg" width="32" height="32" viewBox="0 0 32 32">
<title>edit</title>
<path d="M4.693 27.307c-6.187-6.187-6.187-16.427 0-22.613s16.427-6.187 22.613 0c6.187 6.187 6.187 16.427 0 22.613s-16.427 6.187-22.613 0zM25.6 6.4c-5.333-5.12-13.867-5.12-19.2 0-5.12 5.333-5.12 13.867 0 19.2 5.333 5.333 13.867 5.333 18.987 0 5.333-5.333 5.333-13.867 0.213-19.2zM10.027 21.76c0-0.213 0-0.213 0 0l0.853-3.413 2.773 2.773-3.627 0.64c0.213 0 0 0 0 0zM14.933 19.627l7.467-7.467c0.213-0.213 0.213-0.427 0-0.64l-2.133-2.133c-0.213-0.213-0.427-0.213-0.64 0l-7.467 7.467 2.773 2.773z"></path>
</svg>
