<!-- Generated by IcoMoon.io -->
<svg version="1.1" xmlns="http://www.w3.org/2000/svg" width="32" height="32" viewBox="0 0 32 32">
<title>elec</title>
<path d="M28.875 32h-25.75c-1.75 0-3.125-1.375-3.125-3.125v-25.75c0-1.75 1.375-3.125 3.125-3.125h25.75c1.75 0 3.125 1.375 3.125 3.125v25.75c0 1.75-1.375 3.125-3.125 3.125zM29.438 3.125c0-0.313-0.25-0.563-0.563-0.563h-25.75c-0.313 0-0.563 0.25-0.563 0.563v25.75c0 0.313 0.25 0.563 0.563 0.563h25.75c0.313 0 0.563-0.25 0.563-0.563zM24.375 22.75h-5.125c-0.688 0-1.313-0.563-1.313-1.313s0.625-1.313 1.313-1.313h5.125c0.688 0 1.25 0.563 1.25 1.313s-0.563 1.313-1.25 1.313zM15.813 15.5c-0.688 0-1.313-0.563-1.313-1.25v-5.063c0-0.688 0.625-1.25 1.313-1.25 0.75 0 1.313 0.563 1.313 1.25v5.063c0 0.688-0.563 1.25-1.313 1.25zM12.688 22.75h-5.125c-0.75 0-1.313-0.563-1.313-1.313s0.563-1.313 1.313-1.313h5.125c0.688 0 1.25 0.563 1.25 1.313s-0.563 1.313-1.25 1.313z"></path>
</svg>
