<!-- Generated by IcoMoon.io -->
<svg version="1.1" xmlns="http://www.w3.org/2000/svg" width="32" height="32" viewBox="0 0 32 32">
<title>elec-cutout</title>
<path d="M24.438 20.125c0.75 0 1.313 0.563 1.313 1.313s-0.563 1.313-1.313 1.313h-5.125c-0.688 0-1.25-0.563-1.25-1.313s0.563-1.313 1.25-1.313zM17.125 9.188v5.063c0 0.688-0.563 1.25-1.313 1.25-0.688 0-1.313-0.563-1.313-1.25v-5.063c0-0.688 0.625-1.25 1.313-1.25 0.75 0 1.313 0.563 1.313 1.25zM14.063 21.438c0 0.75-0.625 1.313-1.313 1.313h-4.875c0-0.813-0.125-1.688-0.375-2.563 0.125-0.063 0.313-0.063 0.438-0.063h4.813c0.688 0 1.313 0.563 1.313 1.313zM28.875 32h-24.188c0.688-0.75 1.25-1.625 1.75-2.563h22.438c0.313 0 0.563-0.25 0.563-0.563v-25.75c0-0.313-0.25-0.563-0.563-0.563h-25.75c-0.313 0-0.563 0.25-0.563 0.563v7.438c-0.875-1.438-1.688-2.938-2.563-4.375v-3.063c0-1.75 1.375-3.125 3.125-3.125h25.75c1.75 0 3.125 1.375 3.125 3.125v25.75c0 1.75-1.375 3.125-3.125 3.125z"></path>
</svg>
