<!-- Generated by IcoMoon.io -->
<svg version="1.1" xmlns="http://www.w3.org/2000/svg" width="32" height="32" viewBox="0 0 32 32">
<title>email</title>
<path d="M17.063 10.688c-0.188 0-0.438 0.125-0.563 0.438-0.188-0.25-0.5-0.5-0.875-0.5-0.813 0-1.375 0.625-1.375 1.563 0 0.875 0.5 1.563 1.375 1.563 0.438 0 0.75-0.25 0.938-0.625 0.125 0.375 0.563 0.625 1.125 0.625 1.063 0 1.625-0.75 1.625-2 0-1.75-1.188-3.063-3.313-3.063-2 0-3.375 1.438-3.375 3.438 0 2.063 1.375 3.438 3.438 3.438 1 0 1.875-0.375 2.375-0.938 0.063 0-0.125-0.375-0.313-0.375-0.125 0-0.25 0.063-0.375 0.125-0.375 0.375-1 0.625-1.688 0.625-1.688 0-2.813-1.25-2.813-2.875s1.125-2.813 2.75-2.813c1.813 0 2.688 1.063 2.688 2.438 0 0.875-0.313 1.313-0.75 1.313-0.375 0-0.5-0.188-0.5-0.688v-1.563c0-0.063-0.188-0.125-0.375-0.125zM16.5 12.438c-0.063 0.313-0.313 0.5-0.625 0.5-0.438 0-0.688-0.313-0.688-0.75s0.25-0.75 0.688-0.75c0.25 0 0.5 0.188 0.625 0.375zM0 5.063v21.875h32v-21.875zM16 19.25l-11.75-11.688h23.5zM9.063 15.875l-6.563 6.438v-13zM10.813 17.625l5.188 5.188 5.188-5.188 6.938 6.813h-24.25zM22.938 15.875l6.563-6.563v13z"></path>
</svg>
