<!-- Generated by IcoMoon.io -->
<svg version="1.1" xmlns="http://www.w3.org/2000/svg" width="32" height="32" viewBox="0 0 32 32">
<title>exclamation</title>
<path d="M16 32c-8.747 0-16-7.253-16-16s7.253-16 16-16 16 7.253 16 16-7.253 16-16 16zM16 2.56c-7.467 0-13.44 5.973-13.44 13.44s5.973 13.44 13.44 13.44c7.467 0 13.44-5.973 13.44-13.44s-5.973-13.44-13.44-13.44zM14.933 18.347l-1.067-7.68c-0.213-1.28 0.427-2.133 1.707-2.133h0.64c1.28 0 1.92 0.853 1.707 2.133l-0.853 7.68c-0.213 0.64-0.427 1.067-0.853 1.067h-0.427c-0.427 0-0.64-0.427-0.853-1.067zM14.080 22.827v-0.427c0-1.067 0.64-1.707 1.707-1.707h0.427c1.067 0 1.707 0.64 1.707 1.707v0.427c0 1.067-0.427 1.493-1.707 1.493h-0.427c-1.067 0.213-1.707-0.427-1.707-1.493z"></path>
</svg>
