<!-- Generated by IcoMoon.io -->
<svg version="1.1" xmlns="http://www.w3.org/2000/svg" width="32" height="32" viewBox="0 0 32 32">
<title>exclamation2</title>
<path d="M16 32c-8.813 0-16-7.188-16-16s7.188-16 16-16c8.813 0 16 7.188 16 16s-7.188 16-16 16zM16 2.563c-7.438 0-13.438 6-13.438 13.438s6 13.438 13.438 13.438c7.438 0 13.438-6 13.438-13.438s-6-13.438-13.438-13.438zM14.875 18.375l-0.938-7.813c-0.25-1.313 0.438-2.125 1.688-2.125h0.625c1.25 0 2 0.813 1.688 2.125l-0.938 7.813c-0.188 0.688-0.375 1.063-0.875 1.063h-0.375c-0.438 0-0.688-0.375-0.875-1.063zM14.125 22.875v-0.313c0-1.063 0.5-1.625 1.625-1.625h0.375c1.125 0 1.625 0.563 1.625 1.625v0.313c0 1.063-0.5 1.625-1.625 1.625h-0.375c-1.125 0-1.625-0.563-1.625-1.625z"></path>
</svg>
