<!-- Generated by IcoMoon.io -->
<svg version="1.1" xmlns="http://www.w3.org/2000/svg" width="32" height="32" viewBox="0 0 32 32">
<title>gas</title>
<path d="M16 32c-5.938 0-10.75-4.813-10.75-10.688 0-1.875 0.5-3.688 1.438-5.313l9.313-16 9.313 16c0.938 1.625 1.438 3.438 1.438 5.313 0 5.875-4.813 10.688-10.75 10.688zM23.188 17.25l-7.188-12.313-7.188 12.313c-0.688 1.25-1.063 2.625-1.063 4.063 0 4.563 3.688 8.188 8.25 8.188s8.25-3.625 8.25-8.188c0-1.438-0.375-2.813-1.063-4.063zM16 26.563c-2.813 0-5.063-2.25-5.063-5 0-0.875 0.25-1.75 0.688-2.563l4.375-7.563 4.438 7.563c0.438 0.813 0.688 1.688 0.688 2.563 0 2.75-2.313 5-5.125 5zM18.813 19.938l-2.813-4.75-2.75 4.75c-0.313 0.5-0.438 1.063-0.438 1.625 0 1.75 1.438 3.188 3.188 3.188 1.813 0 3.25-1.438 3.25-3.188 0-0.563-0.188-1.125-0.438-1.625z"></path>
</svg>
