<!-- Generated by IcoMoon.io -->
<svg version="1.1" xmlns="http://www.w3.org/2000/svg" width="38" height="32" viewBox="0 0 38 32">
<title>heart_outline</title>
<path d="M26.353 3.227c1.345 0 2.958 0.269 4.303 1.345 3.765 2.42 5.109 7.798 2.689 11.832-2.151 4.034-14.521 11.832-14.521 11.832s-12.101-7.798-14.521-11.832c-2.42-4.034-1.076-9.412 2.689-11.832 1.345-0.807 2.689-1.345 4.303-1.345 2.689 0 5.378 1.613 6.992 4.303 0.269 0.269 0.538 0.807 0.538 1.345 0.269-0.538 0.269-1.076 0.538-1.345 1.613-2.689 4.303-4.303 6.992-4.303zM26.353 0c-2.689 0-5.378 1.076-7.529 2.958-1.882-1.882-4.571-2.958-7.529-2.958-1.882 0-4.034 0.538-5.916 1.613-5.378 3.227-6.992 10.487-3.765 16.134 2.689 4.571 13.445 11.563 15.597 13.176l1.613 1.076 1.613-1.076c2.151-1.345 12.908-8.605 15.597-13.176 3.227-5.647 1.345-12.908-3.765-16.134-1.613-1.076-3.765-1.613-5.916-1.613v0z"></path>
</svg>
