<!-- Generated by IcoMoon.io -->
<svg version="1.1" xmlns="http://www.w3.org/2000/svg" width="32" height="32" viewBox="0 0 32 32">
<title>home_dual</title>
<path d="M15.787 3.413l13.653 11.307v14.72h-26.88v-14.72l13.227-11.307zM15.787 0l-15.787 13.44v18.56h32v-18.56l-16.213-13.44zM25.813 27.307h-9.387c-0.64 0-1.067-0.427-1.067-1.067v-9.387c0-0.64 0.427-1.067 1.067-1.067h9.387c0.64 0 1.067 0.427 1.067 1.067v9.387c0 0.427-0.427 1.067-1.067 1.067zM16.427 16.64c0 0-0.213 0 0 0l-0.213 9.387c0 0 0 0.213 0.213 0.213h9.387c0 0 0.213 0 0.213-0.213v-9.173c0 0 0-0.213-0.213-0.213h-9.387zM21.333 21.333c-0.213 0-0.427-0.213-0.427-0.427v-1.92c0-0.213 0.213-0.427 0.427-0.427s0.427 0.213 0.427 0.427v1.92c0 0.213-0.213 0.427-0.427 0.427zM24.32 23.893h-1.92c-0.213 0-0.427-0.213-0.427-0.427s0.213-0.427 0.427-0.427h1.92c0.213 0 0.427 0.213 0.427 0.427s-0.213 0.427-0.427 0.427zM20.053 23.893h-1.92c-0.213 0-0.427-0.213-0.427-0.427s0.213-0.427 0.427-0.427h1.92c0.213 0 0.427 0.213 0.427 0.427s-0.213 0.427-0.427 0.427zM8.747 27.52c-2.133 0-4.053-1.707-4.053-4.053 0-0.64 0.213-1.28 0.64-1.92l3.413-5.973 3.413 5.973c0.427 0.64 0.427 1.28 0.427 1.92 0 2.133-1.707 4.053-3.84 4.053zM8.747 17.28l-2.56 4.48c-0.213 0.427-0.427 1.067-0.427 1.493 0 1.707 1.28 2.987 2.987 2.987s2.987-1.28 2.987-2.987c0-0.64-0.213-1.067-0.427-1.493l-2.56-4.48zM8.747 25.387c-1.067 0-1.92-0.853-1.92-1.92 0-0.427 0-0.64 0.213-0.853l1.707-2.773 1.707 2.773c0 0.213 0.213 0.64 0.213 0.853 0 1.067-0.853 1.92-1.92 1.92zM8.747 21.12l-1.067 1.707c0 0.213-0.213 0.427-0.213 0.64 0 0.64 0.427 1.28 1.28 1.28 0.64 0 1.28-0.427 1.28-1.28 0-0.213 0-0.427-0.213-0.64l-1.067-1.707z"></path>
</svg>
