<!-- Generated by IcoMoon.io -->
<svg version="1.1" xmlns="http://www.w3.org/2000/svg" width="32" height="32" viewBox="0 0 32 32">
<title>home</title>
<path d="M32 16c0 8.747-7.253 16-16 16s-16-7.253-16-16 7.253-16 16-16 16 7.253 16 16zM2.56 16c0 7.467 5.973 13.44 13.44 13.44s13.44-5.973 13.44-13.44c0-7.467-5.973-13.44-13.44-13.44s-13.44 5.973-13.44 13.44zM20.907 12.16v-4.053h-2.56v1.92l-2.347-1.92-7.68 6.4v8.96h15.36v-8.96l-2.773-2.347zM21.12 20.907h-3.84v-2.56h-2.56v2.56h-3.84v-5.12l5.12-4.267 5.12 4.267v5.12z"></path>
</svg>
