<!-- Generated by IcoMoon.io -->
<svg version="1.1" xmlns="http://www.w3.org/2000/svg" width="32" height="32" viewBox="0 0 32 32">
<title>info</title>
<path d="M16 2.56c7.467 0 13.44 5.973 13.44 13.44s-5.973 13.44-13.44 13.44-13.44-5.973-13.44-13.44 5.973-13.44 13.44-13.44zM16 0c-8.747 0-16 7.253-16 16s7.253 16 16 16 16-7.253 16-16-7.040-16-16-16v0zM15.36 24.96c-2.133 0-2.987-1.067-2.56-3.413l1.707-7.68c0-0.853 0.213-1.28 0.427-1.493s0.64-0.427 1.067-0.427h0.427c0.64 0 1.067 0.213 1.28 0.427s0.427 0.64 0.213 1.28l-1.707 7.893c-0.213 0.64-0.213 1.28 0 1.493s0.427 0.427 1.067 0.64c0 0 0 0 0 0.213 0 0 0 0.213-0.213 0.427 0 0.213-0.213 0.213-0.427 0.427s-0.427 0.213-0.64 0.213-0.427 0-0.64 0zM17.493 10.027c-0.64 0-1.067-0.213-1.493-0.427s-0.64-0.64-0.64-1.067c0-0.64 0.213-1.067 0.64-1.493s0.853-0.64 1.493-0.64c0.64 0 1.067 0 1.493 0.427 0.427 0.213 0.64 0.64 0.64 1.067 0 0.64-0.213 1.067-0.64 1.493s-1.067 0.64-1.493 0.64z"></path>
</svg>
