<!-- Generated by IcoMoon.io -->
<svg version="1.1" xmlns="http://www.w3.org/2000/svg" width="47" height="32" viewBox="0 0 47 32">
<title>keycard</title>
<path d="M23.788 25.487h-17.558c-0.283 0-0.85-0.283-0.85-0.85s0.283-0.85 0.85-0.85h17.558c0.566 0 0.85 0.283 0.85 0.85s-0.566 0.85-0.85 0.85zM15.575 22.372h-9.345c-0.566 0-0.85-0.283-0.85-0.85s0.283-0.85 0.85-0.85h9.345c0.566 0 0.85 0.283 0.85 0.85s-0.283 0.85-0.85 0.85zM43.044 32h-38.796c-2.265 0-4.248-1.699-4.248-3.965v-23.788c0-2.265 1.982-4.248 4.248-4.248h39.080c2.266 0 4.248 1.982 4.248 4.248v23.788c-0.283 2.265-2.266 3.965-4.531 3.965zM4.248 3.398c-0.283 0-0.85 0.283-0.85 0.85v23.788c0 0.283 0.283 0.85 0.85 0.85h39.080c0.283 0 0.85-0.283 0.85-0.85v-23.788c0-0.283-0.283-0.85-0.85-0.85h-39.080zM37.097 7.929c-3.115-1.982-6.513-2.549-8.496-1.133v0l-3.965 2.265c0 0-0.283 0-0.283 0.283s1.416 1.416 3.681 2.549c-0.566-0.85-0.85-1.982-0.85-2.832 1.416 0.283 3.115 0.566 4.814 1.133 3.965 1.416 6.796 3.115 6.513 3.681 0 0.85-3.398 0.283-7.363-0.85-1.133-0.283-2.265-0.85-3.115-1.133 0.85 1.416 2.265 2.832 3.965 3.965 3.681 2.549 7.929 2.549 9.345 0.283 1.699-2.265-0.283-5.947-4.248-8.212z"></path>
</svg>
