<svg xmlns="http://www.w3.org/2000/svg" width="45" height="45" viewBox="0 0 45 45"><defs><style>.cls-1{fill:#fff;}</style></defs><title>lock</title><g id="Layer_2" data-name="Layer 2"><g id="Content_-_MYACCOUNT-Account-Details-Landing_v4" data-name="Content - MYACCOUNT-Account-Details-Landing_v4"><path class="cls-1" d="M45,22.5A22.5,22.5,0,1,1,22.5,0,22.52,22.52,0,0,1,45,22.5Zm-41.4,0A18.9,18.9,0,1,0,22.5,3.6,18.92,18.92,0,0,0,3.6,22.5Z"/><path class="cls-1" d="M32.28,21.41H16.52V16.8a5.71,5.71,0,1,1,11.41,0,1.09,1.09,0,0,0,2.18,0,7.88,7.88,0,1,0-15.76,0v4.61H12.72a1.09,1.09,0,0,0-1.09,1.09v2.72a10.87,10.87,0,0,0,21.74,0V22.5A1.09,1.09,0,0,0,32.28,21.41ZM23,28.29v1.9a.54.54,0,1,1-1.08,0v-1.9a1.63,1.63,0,1,1,1.08,0Z"/></g></g></svg>