<!-- Generated by IcoMoon.io -->
<svg version="1.1" xmlns="http://www.w3.org/2000/svg" width="32" height="32" viewBox="0 0 32 32">
<title>menu</title>
<path d="M16 32c-8.813 0-16-7.188-16-16s7.188-16 16-16c8.813 0 16 7.188 16 16s-7.188 16-16 16zM16 2.563c-7.438 0-13.438 6-13.438 13.438s6 13.438 13.438 13.438c7.438 0 13.438-6 13.438-13.438s-6-13.438-13.438-13.438zM22.75 11.938h-13.5c-0.625 0-1.125-0.5-1.125-1.125s0.5-1.063 1.125-1.063h13.5c0.625 0 1.125 0.5 1.125 1.063-0.063 0.688-0.5 1.125-1.125 1.125zM22.75 17.063h-13.5c-0.625 0-1.125-0.5-1.125-1.125s0.5-1.125 1.125-1.125h13.5c0.625 0 1.125 0.5 1.125 1.125-0.063 0.688-0.5 1.125-1.125 1.125zM22.75 22.188h-13.5c-0.625 0-1.125-0.5-1.125-1.125s0.5-1.188 1.125-1.188h13.5c0.625 0 1.125 0.563 1.125 1.188s-0.5 1.125-1.125 1.125z"></path>
</svg>
