<!-- Generated by IcoMoon.io -->
<svg version="1.1" xmlns="http://www.w3.org/2000/svg" width="32" height="32" viewBox="0 0 32 32">
<title>meter_est</title>
<path d="M28.8 32h-25.6c-1.707 0-3.2-1.493-3.2-3.2v-25.6c0-1.707 1.493-3.2 3.2-3.2h25.813c1.493 0 2.987 1.493 2.987 3.2v25.813c0 1.493-1.493 2.987-3.2 2.987zM3.2 2.56c-0.213 0-0.64 0.213-0.64 0.64v25.813c0 0.213 0.213 0.64 0.64 0.64h25.813c0.213 0 0.64-0.213 0.64-0.64v-25.813c0-0.213-0.213-0.64-0.64-0.64h-25.813zM24.747 21.12h-17.493c-1.28 0-2.56-1.067-2.56-2.56v-10.88c0-1.28 1.067-2.56 2.56-2.56h17.493c1.28 0 2.56 1.067 2.56 2.56v10.88c-0.213 1.493-1.28 2.56-2.56 2.56zM7.253 7.040c-0.427 0-0.853 0.213-0.853 0.64v10.88c0 0.427 0.427 0.853 0.853 0.853h17.493c0.427 0 0.853-0.427 0.853-0.853v-10.88c0-0.427-0.427-0.853-0.853-0.853h-17.493zM11.093 26.88v-3.2c0 0 0.213 0 0.213 0 0.213 0 0.427 0.213 0.427 0.64v1.493l0.64-0.853c0.213-0.213 0.213-0.213 0.427-0.213s0.427 0.213 0.427 0.213l-0.853 1.067 0.853 1.067c0 0-0.213 0.213-0.427 0.213s-0.213 0-0.427-0.213l-0.853-0.853v0.853c0 0.213-0.213 0.427-0.213 0.427v0c0-0.213-0.213-0.427-0.213-0.64zM14.507 26.88l-0.853-2.773c0 0 0.213-0.213 0.427-0.213s0.427 0 0.427 0.427l0.427 1.92 0.427-1.707c0-0.213 0.213-0.213 0.427-0.213s0.427 0.213 0.427 0.213l0.427 1.707 0.427-1.92c0-0.213 0.213-0.427 0.427-0.427s0.427 0.213 0.427 0.213l-0.853 2.773c0 0.213-0.213 0.213-0.427 0.213s-0.427 0-0.427-0.213l-0.427-1.707-0.64 1.707c0 0.213-0.213 0.213-0.427 0.213 0 0.213-0.213 0-0.213-0.213zM19.2 25.173c0.213-0.213 0.427-0.427 0.853-0.427 0.64 0 0.853 0.427 0.853 1.067v1.28c0 0.213-0.213 0.427-0.213 0.427v0c-0.213 0-0.427 0-0.427-0.427v-1.067c0-0.427-0.213-0.64-0.427-0.64-0.427 0-0.64 0.213-0.64 0.427v1.067c0 0.213-0.213 0.427-0.213 0.427v0c-0.213 0-0.427 0-0.427-0.427v-3.2c0 0 0.213 0 0.213 0 0.213 0 0.427 0.213 0.427 0.64v0.853zM10.24 14.72v-2.773c0-0.427 0.213-0.64 0.64-0.64h2.133c0.427 0 0.64 0.213 0.64 0.64v0c0 0.427-0.213 0.64-0.64 0.64h-1.493v0.213h1.067c0.427 0 0.64 0.213 0.64 0.427v0c0 0.427-0.213 0.427-0.64 0.427h-1.067v0.427h1.707c0.427 0 0.64 0.213 0.64 0.427v0c0 0.427-0.213 0.64-0.64 0.64h-2.133c-0.64 0.213-0.853 0-0.853-0.427zM14.080 14.72c0-0.213 0.427-0.64 0.427-0.64 0.213 0.213 0.853 0.427 1.28 0.427s0.64-0.213 0.64-0.427c0-0.213-0.427-0.213-0.64-0.427-1.067 0-1.707-0.213-1.707-1.067s0.64-1.28 1.707-1.28c1.067 0 1.493 0.427 1.493 0.853s-0.427 0.64-0.427 0.64c-0.213-0.427-0.64-0.64-1.067-0.64s-0.64 0.213-0.64 0.427c0.213 0.213 0.427 0.213 0.853 0.213 0.853 0.213 1.493 0.427 1.493 1.28s-0.64 1.493-1.92 1.493c-1.067 0-1.493-0.427-1.493-0.853zM17.707 11.947v0c0-0.427 0.213-0.64 0.64-0.64h2.56c0.427 0 0.64 0.213 0.64 0.427v0c0 0.427-0.213 0.64-0.64 0.64h-0.64v2.56c0 0.427-0.213 0.64-0.64 0.64h-0.213c-0.213 0-0.427-0.213-0.427-0.64v-2.56h-0.64c-0.427 0-0.64-0.213-0.64-0.427zM21.333 14.933v0c0-0.427 0.213-0.64 0.427-0.64h0.213c0.427 0 0.427 0.213 0.427 0.427v0c0 0.427-0.213 0.427-0.427 0.427h-0.213c-0.213 0.427-0.427 0.213-0.427-0.213z"></path>
</svg>
