<svg id="Layer_1" data-name="Layer 1" xmlns="http://www.w3.org/2000/svg" viewBox="0 0 32 32">
<defs><style>.cls-1{fill:#1d1d1b;}</style></defs>
<title>Mobile app</title>
<path class="cls-1" d="M16,0A16,16,0,1,0,32,16,16,16,0,0,0,16,0Zm0,29.44A13.44,13.44,0,1,1,29.44,16,13.46,13.46,0,0,1,16,29.44Z"/><path class="cls-1" d="M19.72,6.44H12.28A2.85,2.85,0,0,0,9.44,9.28V22.72a2.85,2.85,0,0,0,2.85,2.85h7.43a2.85,2.85,0,0,0,2.85-2.85V9.28A2.85,2.85,0,0,0,19.72,6.44ZM16,23a1.12,1.12,0,1,1,1.12-1.12A1.12,1.12,0,0,1,16,23Zm4.32-4.32H11.68V9.28a.61.61,0,0,1,.61-.61h7.43a.61.61,0,0,1,.61.61Z"/>
</svg>