<svg xmlns="http://www.w3.org/2000/svg" width="45" height="45" viewBox="0 0 45 45"><defs><style>.cls-1{fill:#fff;}</style></defs><title>mouse</title><g id="Layer_2" data-name="Layer 2"><g id="Content_-_MYACCOUNT-Account-Details-Landing_v4" data-name="Content - MYACCOUNT-Account-Details-Landing_v4"><path class="cls-1" d="M34.6,25.7,28.68,12.35A6.64,6.64,0,0,0,19.93,9l-2,.87-.9-2a.94.94,0,1,0-1.73.76l.9,2-2.45,1.09a6.63,6.63,0,0,0-3.38,8.75L16.32,33.8a6.63,6.63,0,0,0,8.75,3.38l6.15-2.73A6.64,6.64,0,0,0,34.6,25.7ZM21,11.29a4.1,4.1,0,0,1,5.41,2.09L27.11,15l-6,2.67-2.4-5.42Zm-8.25,8.14A4.1,4.1,0,0,1,14.8,14l2.74-1.22,2.4,5.42L13.45,21.1ZM30.2,32.14,24,34.87a4.1,4.1,0,0,1-5.41-2.09L14,22.25,27.62,16.2l4.67,10.53A4.1,4.1,0,0,1,30.2,32.14Z"/><path class="cls-1" d="M22.5,45A22.5,22.5,0,1,1,45,22.5,22.52,22.52,0,0,1,22.5,45Zm0-41.4A18.9,18.9,0,1,0,41.4,22.5,18.92,18.92,0,0,0,22.5,3.6Z"/></g></g></svg>