<!-- Generated by IcoMoon.io -->
<svg version="1.1" xmlns="http://www.w3.org/2000/svg" width="32" height="32" viewBox="0 0 32 32">
<title>notification</title>
<path d="M16 2.688c-7.438 0-13.438 5.938-13.438 13.313 0 7.313 6 13.313 13.438 13.313 7.375 0 13.438-6 13.438-13.313 0-7.375-6.063-13.313-13.438-13.313M16 31.813c-8.813 0-16-7.063-16-15.813s7.188-15.875 16-15.875c8.813 0 16 7.125 16 15.875s-7.188 15.813-16 15.813M20.25 20.75h-8.563v-6.188c0-2.375 1.938-4.313 4.313-4.313s4.25 1.938 4.25 4.313zM22.188 19.813v-5.25c0-2.938-2-5.313-4.75-6v-0.688c0-0.75-0.688-1.438-1.438-1.438s-1.438 0.688-1.438 1.438v0.688c-2.75 0.688-4.75 3.063-4.75 6v5.25l-1.938 1.875v0.938h16.188v-0.938zM16 25.5c1.063 0 1.875-0.875 1.875-1.938h-3.813c0 1.063 0.875 1.938 1.938 1.938"></path>
</svg>
