<!-- Generated by IcoMoon.io -->
<svg version="1.1" xmlns="http://www.w3.org/2000/svg" width="32" height="32" viewBox="0 0 32 32">
<title>paperclip</title>
<path d="M20.48 9.6v10.88c0 2.56-2.133 4.48-4.48 4.48-2.56 0-4.48-2.133-4.48-4.48v-10.667c0-1.92 1.493-3.413 3.2-3.413 1.92 0 3.413 1.493 3.413 3.413v8.107c0 1.28-1.067 2.133-2.133 2.133-1.28 0-2.133-1.067-2.133-2.133v-6.187h1.493v6.187c0 0.427 0.213 0.64 0.64 0.64s0.64-0.213 0.64-0.64v-8.107c0-1.067-0.853-1.707-1.707-1.707-1.067 0-1.707 0.853-1.707 1.707v10.667c0 1.707 1.28 2.987 2.987 2.987s2.987-1.28 2.987-2.987v-10.88h1.28zM16 2.56c-7.467 0-13.44 5.973-13.44 13.44s5.973 13.44 13.44 13.44 13.44-5.973 13.44-13.44c0-7.467-5.973-13.44-13.44-13.44zM16 32c-8.747 0-16-7.253-16-16s7.253-16 16-16 16 7.253 16 16c0 8.747-7.253 16-16 16z"></path>
</svg>
