<!-- Generated by IcoMoon.io -->
<svg version="1.1" xmlns="http://www.w3.org/2000/svg" width="32" height="32" viewBox="0 0 32 32">
<title>payg</title>
<path d="M29.375 22.375c-1.688 1.688-3.938 2.688-6.438 2.688h-3.813l0.813 0.813c0.625 0.625 0.625 1.25 0.125 1.813l-0.188 0.125c-0.563 0.563-1.188 0.5-1.813-0.063l-4-4 4-4.063c0.375-0.375 0.625-0.5 1-0.5 0.25 0 0.563 0.125 0.813 0.438l0.188 0.125c0.25 0.313 0.375 0.563 0.313 0.938 0 0.313-0.125 0.625-0.5 0.875l-0.875 0.938h3.875c1.813 0 3.438-0.75 4.625-1.938 1.188-1.125 1.875-2.75 1.875-4.563s-0.688-3.438-1.875-4.563c-1.188-1.188-2.813-1.938-4.625-1.938h-4.063l1.25-1.25-1.375-1.313h4.25c2.5 0 4.75 1.063 6.438 2.688 1.625 1.625 2.625 3.875 2.625 6.375s-1.063 4.75-2.625 6.375zM13.938 12.25c-0.375 0.313-0.625 0.5-1 0.5-0.25 0-0.563-0.188-0.813-0.438l-0.188-0.125c-0.25-0.313-0.375-0.563-0.313-0.938 0-0.313 0.125-0.625 0.5-0.875l0.875-0.938h-3.875c-1.813 0-3.438 0.75-4.625 1.875-1.188 1.188-1.875 2.813-1.875 4.625s0.688 3.375 1.875 4.563c1.188 1.188 2.813 1.875 4.625 1.875h4.063l-1.25 1.25 1.375 1.375h-4.25c-2.5 0-4.75-1.063-6.438-2.688-1.625-1.625-2.625-3.875-2.625-6.375s1.063-4.75 2.625-6.438c1.688-1.625 3.938-2.625 6.438-2.625h3.813l-0.813-0.813c-0.625-0.625-0.625-1.25-0.125-1.813l0.188-0.125c0.563-0.563 1.188-0.5 1.813 0.063l4 4z"></path>
</svg>
