<!-- Generated by IcoMoon.io -->
<svg version="1.1" xmlns="http://www.w3.org/2000/svg" width="32" height="32" viewBox="0 0 32 32">
<title>phone</title>
<path d="M24 23c0.5-0.563 0.75-1.188 0.625-1.75-0.313-1.625-3.188-4.313-4.938-4.125-0.938 0.063-1.875 0.625-2.563 1.125l-3.25-3.813c0.5-0.625 1.188-1.5 1.438-2.438 0.438-1.813-1.875-4.938-3.313-5.438-0.188-0.063-0.375-0.125-0.563-0.125-1.75 0-4 2.875-4.063 4.313-0.125 1.75 0.938 5 4.313 8.875 3.313 3.875 6.313 5.438 8.063 5.625 0.063 0 0.125 0 0.188 0 0.563 0 1.25-0.25 1.875-0.563l0.5 0.688c0.188 0.25 0.5 0.375 0.813 0.375 0.188 0 0.375 0 0.563-0.125 0.438-0.313 0.5-0.938 0.188-1.375l-0.438-0.625c0.188-0.188 0.438-0.375 0.563-0.625zM19.875 19c0.75 0 2.625 1.813 2.813 2.563-0.063 0.188-0.313 0.438-0.625 0.75l-2.688-3.125c0.188-0.125 0.375-0.125 0.5-0.188zM13.438 11.563c-0.063 0.125-0.125 0.313-0.25 0.5l-2.625-3.063c0.313-0.375 0.625-0.563 0.813-0.625 0.813 0.375 2.188 2.5 2.063 3.188zM19.938 23.313c-1.063-0.063-3.688-1.25-6.813-4.938-3.188-3.688-3.875-6.438-3.813-7.5 0-0.188 0.188-0.563 0.375-0.875l2.75 3.125c-0.188 0.188-0.375 0.375-0.563 0.5-0.375 0.375-0.375 0.938-0.063 1.375l4.5 5.188c0.125 0.188 0.375 0.313 0.625 0.313 0.25 0.063 0.5-0.063 0.688-0.188s0.375-0.313 0.625-0.5l2.688 3.188c-0.375 0.188-0.75 0.313-1 0.313zM16 0c-8.813 0-16 7.188-16 16s7.188 16 16 16c8.813 0 16-7.188 16-16s-7.188-16-16-16zM16 29.438c-7.438 0-13.438-6-13.438-13.438s6-13.438 13.438-13.438c7.438 0 13.438 6 13.438 13.438s-6 13.438-13.438 13.438z"></path>
</svg>
