<!-- Generated by IcoMoon.io -->
<svg version="1.1" xmlns="http://www.w3.org/2000/svg" width="30" height="32" viewBox="0 0 30 32">
<title>pie_slice</title>
<path d="M26.667 12.698c0.508 1.27 0.762 2.54 0.762 4.063 0 6.603-5.333 12.19-12.19 12.19s-12.19-5.587-12.19-12.19c0-6.603 5.333-12.19 12.19-12.19 0.254 0 0.254 0 0.508 0l0.762-3.048c-0.508 0-0.762 0-1.27 0-8.381 0-15.238 6.857-15.238 15.238s6.857 15.238 15.238 15.238 15.238-6.857 15.238-15.238c0-2.032-0.508-3.81-1.016-5.587l-2.794 1.524zM14.476 16.762l15.238-8.635c-2.54-4.064-6.349-6.857-10.667-8.127l-4.571 16.762z"></path>
</svg>
