<!-- Generated by IcoMoon.io -->
<svg version="1.1" xmlns="http://www.w3.org/2000/svg" width="32" height="32" viewBox="0 0 32 32">
<title>pin</title>
<path d="M16 32c-8.747 0-16-7.253-16-16s7.253-16 16-16 16 7.253 16 16-7.253 16-16 16zM16 2.56c-7.467 0-13.44 5.973-13.44 13.44s5.973 13.44 13.44 13.44c7.467 0 13.44-5.973 13.44-13.44s-5.973-13.44-13.44-13.44zM16 7.893c-2.987 0-5.547 2.56-5.547 5.547s5.547 10.453 5.547 10.453 5.547-7.467 5.547-10.453c0-2.987-2.56-5.547-5.547-5.547zM16 16.427c-1.493 0-2.773-1.28-2.773-2.773 0-1.707 1.28-2.987 2.773-2.987s2.773 1.28 2.773 2.773c0 1.707-1.28 2.987-2.773 2.987z"></path>
</svg>
