<!-- Generated by IcoMoon.io -->
<svg version="1.1" xmlns="http://www.w3.org/2000/svg" width="32" height="32" viewBox="0 0 32 32">
<title>pin2</title>
<path d="M16 32c-8.813 0-16-7.188-16-16s7.188-16 16-16c8.813 0 16 7.188 16 16s-7.188 16-16 16zM16 2.563c-7.438 0-13.438 6-13.438 13.438s6 13.438 13.438 13.438c7.438 0 13.438-6 13.438-13.438s-6-13.438-13.438-13.438zM10.5 13.5c0-3.063 2.438-5.5 5.5-5.5s5.5 2.438 5.5 5.5c0 3.063-5.5 10.5-5.5 10.5s-5.5-7.438-5.5-10.5zM18.875 13.5c0-1.563-1.313-2.875-2.875-2.875s-2.875 1.313-2.875 2.875c0 1.563 1.313 2.875 2.875 2.875s2.875-1.313 2.875-2.875z"></path>
</svg>
