<!-- Generated by IcoMoon.io -->
<svg version="1.1" xmlns="http://www.w3.org/2000/svg" width="32" height="32" viewBox="0 0 32 32">
<title>play</title>
<path d="M16 32c-8.747 0-16-7.253-16-16s7.253-16 16-16 16 7.253 16 16-7.253 16-16 16zM16 2.56c-7.467 0-13.44 5.973-13.44 13.44s5.973 13.44 13.44 13.44c7.467 0 13.44-5.973 13.44-13.44s-5.973-13.44-13.44-13.44zM23.253 15.36c0.64 0.213 0.64 0.853 0 1.067l-11.733 5.973c-0.64 0.213-1.067 0-1.067-0.64v-11.52c0-0.64 0.427-1.067 1.067-0.64l11.733 5.76z"></path>
</svg>
