<!-- Generated by IcoMoon.io -->
<svg version="1.1" xmlns="http://www.w3.org/2000/svg" width="32" height="32" viewBox="0 0 32 32">
<title>plus2</title>
<path d="M27.188 4.875c-6.063-6.063-15.938-6.188-22.125-0.188-6.375 6.125-6.438 16.313-0.25 22.5 6.313 6.313 16.5 6.125 22.5-0.188 6.063-6.188 5.875-16.125-0.125-22.125zM25.625 25.25c-5.188 5.25-13.688 5.313-18.938 0.063s-5.188-13.688 0.188-18.875c5.188-5 13.563-4.938 18.625 0.125 5.063 5.125 5.125 13.438 0.125 18.688zM22.375 15.688c0-0.688-0.438-1.188-1.375-1.188h-3.25v-3c0-0.938-0.438-1.375-1.188-1.375h-0.125c-0.688 0-1.188 0.375-1.188 1.375v3h-3.063c-0.938 0-1.375 0.5-1.375 1.188v0.25c0 0.688 0.375 1.25 1.375 1.25h3.125v3.063c0 0.938 0.5 1.375 1.188 1.375h0.188c0.688 0 1.125-0.438 1.125-1.375v-3.063h3.25c0.938 0 1.438-0.5 1.438-1.25z"></path>
</svg>
