<!-- Generated by IcoMoon.io -->
<svg version="1.1" xmlns="http://www.w3.org/2000/svg" width="32" height="32" viewBox="0 0 32 32">
<title>pound</title>
<path d="M16 32c-8.747 0-16-7.253-16-16s7.253-16 16-16 16 7.253 16 16-7.253 16-16 16zM16 2.56c-7.467 0-13.44 5.973-13.44 13.44s5.973 13.44 13.44 13.44c7.467 0 13.44-5.973 13.44-13.44s-5.973-13.44-13.44-13.44zM9.173 16v-0.213c0-0.64 0.427-1.067 1.28-1.067h1.493l0.427-2.56c0.427-3.2 2.347-4.907 5.333-4.907s4.48 1.493 4.48 3.2c0 1.92-1.92 1.707-1.92 1.707-0.213-1.28-1.067-2.133-2.347-2.133-1.493 0-2.133 0.64-2.347 2.347l-0.64 2.347h3.2c0.64 0 1.28 0.427 1.28 1.067v0.213c0 0.64-0.427 1.067-1.28 1.067h-3.627l-0.64 3.413h6.613c1.067 0 1.493 0.427 1.493 1.28v0.213c0 0.853-0.427 1.28-1.493 1.28h-10.24c-1.067 0-1.493-0.427-1.493-1.28v-0.213c0-0.853 0.427-1.28 1.493-1.28h0.64l0.64-3.2h-1.067c-0.853 0-1.28-0.427-1.28-1.28z"></path>
</svg>
