<!-- Generated by IcoMoon.io -->
<svg version="1.1" xmlns="http://www.w3.org/2000/svg" width="32" height="32" viewBox="0 0 32 32">
<title>print</title>
<path d="M30 24h-4.063v6c0 1.125-0.875 2-2 2h-16c-1.125 0-2-0.875-2-2v-6h-4.063c-1.125 0-2-0.875-2-2v-12c0-1.125 0.875-2 2-2h27.938c1.125 0 2.063 0.875 2.063 2v12c0.125 1.125-0.75 2-1.875 2zM24 18h-16v12h16zM27.938 10c-1.063 0-2 0.938-2 2.063 0 1.063 0.938 2 2 2 1.125 0 2.063-0.938 2.063-2 0-1.125-0.938-2.063-2.063-2.063zM11.188 19.938h9.688c0.625 0 1.188 0.438 1.188 1s-0.563 1-1.188 1h-9.688c-0.625 0-1.188-0.438-1.188-1 0-0.5 0.5-1 1.188-1zM11.188 24h7.688c0.625 0 1.188 0.438 1.188 1 0 0.5-0.563 0.938-1.188 0.938h-7.688c-0.625 0-1.188-0.438-1.188-0.938 0-0.563 0.5-1 1.188-1zM25 6c-0.563 0-1-0.563-1-1.188v-1.688c0-0.625-0.563-1.188-1.188-1.188h-13.625c-0.625 0-1.188 0.563-1.188 1.188v1.688c0 0.625-0.438 1.188-1 1.188-0.5 0-0.938-0.563-0.938-1.188v-2.875c0-1.125 0.875-2 2-2h16c1.125 0 2 0.875 2 2v2.875c-0.063 0.688-0.563 1.188-1.063 1.188z"></path>
</svg>
