<!-- Generated by IcoMoon.io -->
<svg version="1.1" xmlns="http://www.w3.org/2000/svg" width="32" height="32" viewBox="0 0 32 32">
<title>question-mark</title>
<path d="M16 31.938c-8.813 0-16-7.125-16-15.938s7.188-16 16-16c8.813 0 15.938 7.188 15.938 16s-7.125 15.938-15.938 15.938zM16 2.563c-7.438 0-13.438 6-13.438 13.438 0 7.375 6 13.375 13.438 13.375 7.375 0 13.375-6 13.375-13.375 0-7.438-6-13.438-13.375-13.438zM13.625 22.438v-0.313c0-1.063 0.563-1.625 1.625-1.625h0.438c1.063 0 1.625 0.563 1.625 1.625v0.313c0 1.063-0.563 1.625-1.625 1.625h-0.438c-1.063 0-1.625-0.563-1.625-1.625zM14 18c0.063-4.063 4.188-3.438 4.188-5.5 0-1.125-0.813-1.813-2.25-1.813-2 0-2.938 1.438-3.125 2.813 0 0.063-2.313 0.125-2.313-1.688 0-1.75 1.813-3.938 5.5-3.938 3.438 0 5.5 1.75 5.5 4.375 0 4-4.438 3.438-4.688 6.25-0.125 0.438-0.563 0.688-1.375 0.688-0.875 0-1.438-0.438-1.438-1.188z"></path>
</svg>
