<!-- Generated by IcoMoon.io -->
<svg version="1.1" xmlns="http://www.w3.org/2000/svg" width="32" height="32" viewBox="0 0 32 32">
<title>refresh</title>
<path d="M22.938 5.188c-0.5-0.313-1.125-0.188-1.438 0.313-0.313 0.438-0.188 1.125 0.313 1.438 3.313 2.25 5.063 6.25 4.563 10.313-0.313 2.875-1.688 5.5-3.875 7.313-2.063 1.688-4.563 2.438-7.125 2.313l1.563-1.313c0.313-0.25 0.563-0.563 0.563-0.938 0-0.688-0.625-1.125-1.188-1.063l-3.625 3.813c-0.25 0.25-0.25 0.5 0 0.75l3.625 3.813c0.563 0.125 1.188-0.313 1.188-0.938 0-0.438-0.25-0.813-0.563-1.063l-1.125-0.938c0.063 0 0.125 0 0.188 0 2.813 0 5.5-1 7.75-2.813 2.563-2.188 4.25-5.25 4.625-8.688 0.563-4.875-1.563-9.563-5.438-12.313zM19.313 3.875l-3.688-3.875c-0.563-0.125-1.188 0.375-1.188 1 0 0.375 0.25 0.813 0.563 1.063l1.188 0.938c-2.875-0.063-5.688 0.938-7.938 2.813-2.625 2.125-4.313 5.25-4.688 8.688-0.5 4.875 1.563 9.563 5.5 12.313 0.125 0.125 0.313 0.188 0.5 0.188 0.375 0 0.688-0.188 0.875-0.5 0.313-0.438 0.188-1.125-0.313-1.438-3.25-2.313-5-6.25-4.563-10.313 0.313-2.938 1.688-5.5 3.938-7.313 2-1.688 4.5-2.438 7.063-2.313l-1.563 1.25c-0.313 0.25-0.5 0.563-0.5 1 0 0.625 0.563 1.063 1.188 1l3.625-3.813c0.188-0.188 0.188-0.5 0-0.688z"></path>
</svg>
