<!-- Generated by IcoMoon.io -->
<svg version="1.1" xmlns="http://www.w3.org/2000/svg" width="32" height="32" viewBox="0 0 32 32">
<title>search</title>
<path d="M16 32c-8.875 0-16-7.125-16-16s7.125-16 16-16c8.875 0 16 7.125 16 16s-7.125 16-16 16zM16 2.563c-7.375 0-13.438 6.063-13.438 13.438s6.063 13.438 13.438 13.438c7.375 0 13.438-6.063 13.438-13.438 0-7.438-6.063-13.438-13.438-13.438zM22.938 24.875c-0.313 0-0.625-0.125-0.875-0.438l-3.688-3.75c-0.375-0.313-0.438-0.875-0.375-1.25l-1.438-1.5c-0.875 0.625-1.938 0.938-3.125 0.938-3.063 0-5.625-2.563-5.625-5.625 0-3.125 2.563-5.688 5.625-5.688 1.5 0 3 0.625 4.063 1.688 1.063 1.125 1.563 2.5 1.563 4s-0.625 2.875-1.563 3.813l1.5 1.5c0.438-0.125 0.813 0 1.25 0.313l3.75 3.75c0.563 0.5 0.563 1.25 0 1.813-0.438 0.313-0.75 0.438-1.063 0.438zM16 10.688c-0.75-0.75-1.625-1.063-2.688-1.063-2 0-3.688 1.688-3.688 3.688 0 2.063 1.688 3.75 3.688 3.75 2.063 0 3.75-1.688 3.75-3.75 0-1.063-0.438-1.875-1.063-2.625z"></path>
</svg>
