<!-- Generated by IcoMoon.io -->
<svg version="1.1" xmlns="http://www.w3.org/2000/svg" width="32" height="32" viewBox="0 0 32 32">
<title>speech-bubble</title>
<path d="M16 31.938c-8.813 0-16-7.125-16-15.938s7.188-16 16-16c8.813 0 15.938 7.188 15.938 16s-7.125 15.938-15.938 15.938zM16 2.563c-7.438 0-13.438 6-13.438 13.438 0 7.375 6 13.375 13.438 13.375 7.375 0 13.375-6 13.375-13.375 0-7.438-6-13.438-13.375-13.438zM15.813 22.875c-3.938 0-7.125-3.125-7.125-7.063 0-3.875 3.188-7.063 7.125-7.063 3.875 0 7.063 3.188 7.063 7.063 0 1.188-0.313 2.313-0.813 3.313l1.188 2.875c0.063 0.313-0.063 0.688-0.313 0.938s-0.625 0.313-0.938 0.25l-2.813-1.188c-1.063 0.625-2.188 0.875-3.375 0.875zM15.813 10.75c-2.813 0-5.063 2.25-5.063 5.063s2.25 5.063 5.063 5.063c0.938 0 1.875-0.25 2.688-0.813 0.25-0.125 0.5-0.188 0.75-0.125l1.625 0.875-0.875-1.625c-0.063-0.25-0.063-0.5 0.125-0.75 0.438-0.813 0.75-1.688 0.75-2.625 0-2.813-2.313-5.063-5.063-5.063z"></path>
</svg>
