<!-- Generated by IcoMoon.io -->
<svg version="1.1" xmlns="http://www.w3.org/2000/svg" width="32" height="32" viewBox="0 0 32 32">
<title>sun</title>
<path d="M16 8c-4.438 0-8 3.563-8 8s3.563 8 8 8c4.438 0 8-3.563 8-8s-3.563-8-8-8zM16 5.625c-0.813 0-1.563-0.688-1.563-1.5v-2.563c0-0.875 0.75-1.563 1.563-1.563 0.875 0 1.563 0.688 1.563 1.563v2.5c0 0.875-0.75 1.563-1.563 1.563zM16 26.375c-0.813 0-1.563 0.688-1.563 1.5v2.5c0 0.875 0.75 1.563 1.563 1.563 0.875 0 1.563-0.688 1.563-1.563v-2.5c0-0.813-0.75-1.5-1.563-1.5zM23.375 8.625c-0.625-0.625-0.625-1.563 0-2.25l1.75-1.75c0.688-0.688 1.625-0.688 2.25 0 0.688 0.625 0.688 1.563 0 2.25l-1.75 1.75c-0.688 0.625-1.688 0.625-2.25 0zM8.625 23.375c-0.625-0.625-1.563-0.625-2.25 0l-1.75 1.75c-0.688 0.688-0.688 1.625 0 2.25 0.625 0.688 1.563 0.688 2.25 0l1.75-1.75c0.625-0.688 0.625-1.688 0-2.25zM26.375 16c0-0.813 0.688-1.563 1.5-1.563h2.5c0.875 0 1.563 0.75 1.563 1.563 0 0.875-0.688 1.563-1.563 1.563h-2.5c-0.813 0-1.5-0.75-1.5-1.563zM5.625 16c0-0.813-0.688-1.563-1.5-1.563h-2.563c-0.875 0-1.563 0.75-1.563 1.563 0 0.875 0.688 1.563 1.563 1.563h2.5c0.875 0 1.563-0.75 1.563-1.563zM23.375 23.375c0.625-0.625 1.563-0.625 2.25 0l1.75 1.75c0.688 0.688 0.688 1.625 0 2.25-0.625 0.688-1.563 0.688-2.25 0l-1.75-1.75c-0.625-0.688-0.625-1.688 0-2.25zM8.625 8.625c0.625-0.625 0.625-1.563 0-2.25l-1.75-1.75c-0.688-0.688-1.625-0.688-2.25 0-0.688 0.625-0.688 1.563 0 2.25l1.75 1.75c0.688 0.625 1.688 0.625 2.25 0z"></path>
</svg>
