<!-- Generated by IcoMoon.io -->
<svg version="1.1" xmlns="http://www.w3.org/2000/svg" width="32" height="32" viewBox="0 0 32 32">
<title>tariff</title>
<path d="M16 0c-4.317 0-8.381 1.778-11.429 4.571-2.794 3.048-4.571 7.111-4.571 11.429 0 8.889 7.111 16 16 16 2.54 0 5.079-0.762 7.365-1.778l-2.286-2.286c-1.524 0.762-3.302 1.016-5.079 1.016-7.111 0-12.952-5.841-12.952-12.952 0-3.556 1.27-6.603 3.81-9.143s5.587-3.81 9.143-3.81c7.111 0 12.952 5.841 12.952 12.952 0 1.778-0.254 3.556-1.016 5.079l2.286 2.286c1.016-2.286 1.778-4.571 1.778-7.365 0-8.889-7.111-16-16-16zM21.587 9.397h-10.921c-0.254 0-0.508 0-0.762 0.254s-0.254 0.508-0.254 1.016v10.921c0.508 1.016 2.032 1.27 3.048 0.254v0c0 0 0 0 0 0 0.508-0.508 0.762-1.524 0.762-2.286l-0.508-4.317 10.921 10.921 0.762 1.016 1.27 1.27c1.016-0.762 1.778-1.778 2.794-2.794l-1.27-1.27-1.016-0.762-11.175-10.667 4.317 0.508c0.762 0.254 1.524 0 2.286-0.508 1.016-1.27 0.762-2.794-0.254-3.556z"></path>
</svg>
