<!-- Generated by IcoMoon.io -->
<svg version="1.1" xmlns="http://www.w3.org/2000/svg" width="32" height="32" viewBox="0 0 32 32">
<title>tick</title>
<path d="M16 0c-8.813 0-16 7.188-16 16s7.188 15.938 16 15.938c8.813 0 15.938-7.125 15.938-15.938s-7.125-16-15.938-16zM16 29.375c-7.438 0-13.438-6-13.438-13.375 0-7.438 6-13.438 13.438-13.438 7.375 0 13.375 6 13.375 13.438 0 7.375-6 13.375-13.375 13.375zM20.813 8.063l-6.5 12.75-2.563-3.438c-0.625-0.688-1.188-1-1.75-1-1.188 0-1.875 1.125-1.938 1.5l6.188 6.938h0.375l9-15.313c1.125-1.875-1.813-3.375-2.813-1.438z"></path>
</svg>
