<!-- Generated by IcoMoon.io -->
<svg version="1.1" xmlns="http://www.w3.org/2000/svg" width="32" height="32" viewBox="0 0 32 32">
<title>user</title>
<path d="M16 0c-8.813 0-16 7.188-16 16s7.188 16 16 16c8.813 0 16-7.188 16-16s-7.188-16-16-16zM9 27.438v-4.688c0-1.438 1.188-2.563 2.563-2.563h8.813c1.375 0 2.563 1.125 2.563 2.563v4.688c-2 1.313-4.375 2-6.938 2s-4.938-0.688-7-2zM25.063 25.938v-3.188c0-2.563-2.063-4.688-4.625-4.688h-8.875c-2.563 0-4.625 2.125-4.625 4.688v3.188c-2.688-2.5-4.375-6.063-4.375-9.938 0-7.438 6-13.438 13.438-13.438s13.438 6 13.438 13.438c0 3.875-1.688 7.438-4.375 9.938zM16 5.375c-3.125 0-5.75 2.563-5.75 5.75s2.563 5.75 5.75 5.75c3.125 0 5.75-2.563 5.75-5.75s-2.625-5.75-5.75-5.75zM16 14.75c-2.063 0-3.625-1.688-3.625-3.688 0-2.063 1.625-3.625 3.625-3.625 2.063 0 3.625 1.625 3.625 3.625 0 2.063-1.563 3.688-3.625 3.688z"></path>
</svg>
